<svg version="1.1" viewBox="0.0 0.0 564.8792650918635 570.7322834645669" fill="none" stroke="none" stroke-linecap="square" stroke-miterlimit="10" xmlns:xlink="http://www.w3.org/1999/xlink" xmlns="http://www.w3.org/2000/svg"><clipPath id="p.0"><path d="m0 0l564.8793 0l0 570.7323l-564.8793 0l0 -570.7323z" clip-rule="nonzero"/></clipPath><g clip-path="url(#p.0)"><path fill="#000000" fill-opacity="0.0" d="m0 0l564.8793 0l0 570.7323l-564.8793 0z" fill-rule="evenodd"/><path fill="#b7b7b7" d="m4.8766084 102.60548l0 0c0 -49.663136 40.259922 -89.923065 89.92306 -89.923065l374.2956 0l0 0c23.84909 0 46.721375 9.474009 63.585205 26.337852c16.86383 16.863846 26.33783 39.736126 26.33783 63.58521l0 359.68146c0 49.663116 -40.259888 89.923035 -89.923035 89.923035l-374.2956 0c-49.663136 0 -89.92306 -40.25992 -89.92306 -89.923035z" fill-rule="evenodd"/><defs><linearGradient id="p.1" gradientUnits="userSpaceOnUse" gradientTransform="matrix(20.233502237218755 0.0 0.0 20.233502237218755 0.0 0.0)" spreadMethod="pad" x1="-0.3719137161651087" y1="13.464963272653964" x2="13.935307539634575" y2="27.77223529499037"><stop offset="0.0" stop-color="#12dac8" stop-opacity="0.46666667"/><stop offset="0.05" stop-color="#3ee2d3" stop-opacity="0.5176471"/><stop offset="0.1" stop-color="#64e7da" stop-opacity="0.57254905"/><stop offset="0.15" stop-color="#84ece2" stop-opacity="0.62352943"/><stop offset="0.2" stop-color="#9cf0e7" stop-opacity="0.6784314"/><stop offset="0.25" stop-color="#b3f3ed" stop-opacity="0.73333335"/><stop offset="0.3" stop-color="#c7f6f2" stop-opacity="0.78431374"/><stop offset="0.35" stop-color="#d6f9f5" stop-opacity="0.8392157"/><stop offset="0.4" stop-color="#e6fcf9" stop-opacity="0.8901961"/><stop offset="0.45000002" stop-color="#f3fdfc" stop-opacity="0.94509804"/><stop offset="0.5" stop-color="#ffffff"/><stop offset="1.0" stop-color="#5be6e6"/></linearGradient></defs><path fill="url(#p.1)" d="m103.03771 229.22275c1.1424408 0 2.0244675 0.36473083 2.6460876 1.0942078c0.62161255 0.72946167 1.184433 1.7642822 1.6884537 3.1044617l19.354233 54.25186l-47.528755 0l19.833046 -54.25186c0.4032135 -1.3401794 0.91563416 -2.375 1.5372543 -3.1044617c0.62161255 -0.7294769 1.4448395 -1.0942078 2.4696808 -1.0942078zm0 -13.155823c-3.8137283 0 -7.1654434 0.9924164 -10.05513 2.9772491c-2.8896942 1.9848175 -5.1577682 5.114731 -6.804222 9.38974l-36.86881 98.96129l15.649715 0l9.601509 -26.413422l56.65146 0l9.450302 26.413422l16.254532 0l-36.994804 -99.11397c-1.5456543 -4.275009 -3.7885284 -7.379471 -6.7286224 -9.3134c-2.940094 -1.9339447 -6.325409 -2.9009094 -10.15593 -2.9009094z" fill-rule="evenodd"/><defs><linearGradient id="p.2" gradientUnits="userSpaceOnUse" gradientTransform="matrix(20.233502237218755 0.0 0.0 20.233502237218755 0.0 0.0)" spreadMethod="pad" x1="-0.3719137161651087" y1="13.464963272653964" x2="13.935307539634575" y2="27.77223529499037"><stop offset="0.0" stop-color="#12dac8" stop-opacity="0.46666667"/><stop offset="0.05" stop-color="#3ee2d3" stop-opacity="0.5176471"/><stop offset="0.1" stop-color="#64e7da" stop-opacity="0.57254905"/><stop offset="0.15" stop-color="#84ece2" stop-opacity="0.62352943"/><stop offset="0.2" stop-color="#9cf0e7" stop-opacity="0.6784314"/><stop offset="0.25" stop-color="#b3f3ed" stop-opacity="0.73333335"/><stop offset="0.3" stop-color="#c7f6f2" stop-opacity="0.78431374"/><stop offset="0.35" stop-color="#d6f9f5" stop-opacity="0.8392157"/><stop offset="0.4" stop-color="#e6fcf9" stop-opacity="0.8901961"/><stop offset="0.45000002" stop-color="#f3fdfc" stop-opacity="0.94509804"/><stop offset="0.5" stop-color="#ffffff"/><stop offset="1.0" stop-color="#5be6e6"/></linearGradient></defs><path fill="url(#p.2)" d="m205.39474 245.78839c-7.1234283 0 -13.474045 1.484375 -19.051819 4.4531403c-5.5777893 2.96875 -9.9375305 7.1165314 -13.079239 12.443314c-3.141693 5.309845 -4.7125397 11.510284 -4.7125397 18.601349l0 46.10901l14.238464 0l0 -45.95633c0 -4.800873 1.0584259 -8.948669 3.175293 -12.443298c2.116867 -3.4946594 4.8973694 -6.1750183 8.341476 -8.041077c3.460907 -1.8830566 7.157028 -2.8245544 11.088364 -2.8245544c3.9145203 0 7.602249 0.9414978 11.063156 2.8245544c3.4609222 1.8660583 6.249817 4.546417 8.366684 8.041077c2.116867 3.494629 3.175293 7.6424255 3.175293 12.443298l0 45.95633l14.23848 0l0 -46.10901c0 -7.0910645 -1.5792542 -13.291534 -4.7377625 -18.601349c-3.1417084 -5.326782 -7.476242 -9.474564 -13.003632 -12.443314c-5.5105743 -2.9687653 -11.877991 -4.4531403 -19.102219 -4.4531403z" fill-rule="evenodd"/><defs><linearGradient id="p.3" gradientUnits="userSpaceOnUse" gradientTransform="matrix(20.233502237218755 0.0 0.0 20.233502237218755 0.0 0.0)" spreadMethod="pad" x1="-0.3719137161651087" y1="13.464963272653964" x2="13.935307539634575" y2="27.77223529499037"><stop offset="0.0" stop-color="#12dac8" stop-opacity="0.46666667"/><stop offset="0.05" stop-color="#3ee2d3" stop-opacity="0.5176471"/><stop offset="0.1" stop-color="#64e7da" stop-opacity="0.57254905"/><stop offset="0.15" stop-color="#84ece2" stop-opacity="0.62352943"/><stop offset="0.2" stop-color="#9cf0e7" stop-opacity="0.6784314"/><stop offset="0.25" stop-color="#b3f3ed" stop-opacity="0.73333335"/><stop offset="0.3" stop-color="#c7f6f2" stop-opacity="0.78431374"/><stop offset="0.35" stop-color="#d6f9f5" stop-opacity="0.8392157"/><stop offset="0.4" stop-color="#e6fcf9" stop-opacity="0.8901961"/><stop offset="0.45000002" stop-color="#f3fdfc" stop-opacity="0.94509804"/><stop offset="0.5" stop-color="#ffffff"/><stop offset="1.0" stop-color="#5be6e6"/></linearGradient></defs><path fill="url(#p.3)" d="m251.99727 247.67143l25.70485 69.87599c1.3440247 3.749115 3.4356995 6.64151 6.274994 8.677246c2.8392944 2.0357056 6.006195 3.0535583 9.500702 3.0535583c3.6289368 0 6.8294373 -1.0178528 9.601532 -3.0535583c2.7888794 -2.035736 4.9057617 -4.928131 6.3506165 -8.677246l25.704834 -69.87599l-15.322113 0l-23.083954 64.55766c-0.40319824 1.0348206 -0.84002686 1.7642822 -1.3104248 2.1884155c-0.4536438 0.42410278 -1.0416565 0.6361389 -1.7640686 0.6361389c-0.62161255 0 -1.1928406 -0.21203613 -1.7136536 -0.6361389c-0.520813 -0.42410278 -0.9828491 -1.1535645 -1.3860474 -2.1884155l-22.93274 -64.55766z" fill-rule="evenodd"/><defs><linearGradient id="p.4" gradientUnits="userSpaceOnUse" gradientTransform="matrix(20.233502237218755 0.0 0.0 20.233502237218755 0.0 0.0)" spreadMethod="pad" x1="-0.3719137161651087" y1="13.464963272653964" x2="13.935307539634575" y2="27.77223529499037"><stop offset="0.0" stop-color="#12dac8" stop-opacity="0.46666667"/><stop offset="0.05" stop-color="#3ee2d3" stop-opacity="0.5176471"/><stop offset="0.1" stop-color="#64e7da" stop-opacity="0.57254905"/><stop offset="0.15" stop-color="#84ece2" stop-opacity="0.62352943"/><stop offset="0.2" stop-color="#9cf0e7" stop-opacity="0.6784314"/><stop offset="0.25" stop-color="#b3f3ed" stop-opacity="0.73333335"/><stop offset="0.3" stop-color="#c7f6f2" stop-opacity="0.78431374"/><stop offset="0.35" stop-color="#d6f9f5" stop-opacity="0.8392157"/><stop offset="0.4" stop-color="#e6fcf9" stop-opacity="0.8901961"/><stop offset="0.45000002" stop-color="#f3fdfc" stop-opacity="0.94509804"/><stop offset="0.5" stop-color="#ffffff"/><stop offset="1.0" stop-color="#5be6e6"/></linearGradient></defs><path fill="url(#p.4)" d="m380.04785 257.8246c3.4105225 0 6.3757935 0.5258789 8.895905 1.5776672c2.5368652 1.0348206 4.6537476 2.4174194 6.350586 4.147766c1.6968689 1.7134094 3.0577087 3.638855 4.08255 5.776367c1.041626 2.120514 1.7640381 4.3089294 2.1672668 6.5651855c0.42001343 2.2392883 0.6300049 4.342865 0.6300049 6.3106995l-45.05905 0c0.21838379 -2.9178467 0.84002686 -5.835724 1.8648376 -8.753571c1.0416565 -2.9178772 2.5368958 -5.547333 4.4857483 -7.888397c1.9656677 -2.341095 4.317749 -4.215637 7.056244 -5.6236877c2.7384949 -1.40802 5.913788 -2.11203 9.525909 -2.11203zm0 -12.036194c-7.543457 0 -14.154449 1.8236694 -19.833038 5.470993c-5.678589 3.6473236 -10.122345 8.626358 -13.331238 14.937088c-3.1921082 6.2937317 -4.7881775 13.401794 -4.7881775 21.324127c0 8.024109 1.8816833 15.038849 5.644989 21.04422c3.7801208 5.9884033 9.021912 10.628143 15.725311 13.91922c6.7202454 3.274109 14.414886 4.9111633 23.083954 4.9111633l20.286682 0l0 -12.341553l-20.58908 0c-5.073761 0 -9.702332 -0.85668945 -13.885651 -2.5700684c-4.1665344 -1.7303772 -7.5938416 -4.2835083 -10.281952 -7.6593933c-2.6880798 -3.3928833 -4.2841187 -7.5406494 -4.788147 -12.443329l58.818726 0c0.2184143 -0.9500122 0.35281372 -2.0441895 0.40319824 -3.2825928c0.05041504 -1.2553711 0.07562256 -2.4598389 0.07562256 -3.6134033c0 -7.3964233 -1.3440552 -14.088837 -4.032135 -20.07724c-2.6880798 -5.9884033 -6.7454224 -10.755371 -12.171997 -14.300919c-5.40979 -3.5455322 -12.188812 -5.3183136 -20.337067 -5.3183136z" fill-rule="evenodd"/><defs><linearGradient id="p.5" gradientUnits="userSpaceOnUse" gradientTransform="matrix(20.233502237218755 0.0 0.0 20.233502237218755 0.0 0.0)" spreadMethod="pad" x1="-0.3719137161651087" y1="13.464963272653964" x2="13.935307539634575" y2="27.77223529499037"><stop offset="0.0" stop-color="#12dac8" stop-opacity="0.46666667"/><stop offset="0.05" stop-color="#3ee2d3" stop-opacity="0.5176471"/><stop offset="0.1" stop-color="#64e7da" stop-opacity="0.57254905"/><stop offset="0.15" stop-color="#84ece2" stop-opacity="0.62352943"/><stop offset="0.2" stop-color="#9cf0e7" stop-opacity="0.6784314"/><stop offset="0.25" stop-color="#b3f3ed" stop-opacity="0.73333335"/><stop offset="0.3" stop-color="#c7f6f2" stop-opacity="0.78431374"/><stop offset="0.35" stop-color="#d6f9f5" stop-opacity="0.8392157"/><stop offset="0.4" stop-color="#e6fcf9" stop-opacity="0.8901961"/><stop offset="0.45000002" stop-color="#f3fdfc" stop-opacity="0.94509804"/><stop offset="0.5" stop-color="#ffffff"/><stop offset="1.0" stop-color="#5be6e6"/></linearGradient></defs><path fill="url(#p.5)" d="m439.19617 227.64507l0 20.026367l-13.633667 0l0 12.341537l13.633667 0l0 44.709442c0 6.9892883 1.9824524 12.519653 5.9473877 16.591064c3.98172 4.054474 9.483917 6.081726 16.50653 6.081726l18.572998 0l0 -12.341553l-15.952118 0c-3.4105225 0 -6.073395 -1.0178528 -7.9886475 -3.0535583c-1.898468 -2.035736 -2.8476868 -4.7754517 -2.8476868 -8.219208l0 -43.767914l27.090881 0l0 -12.341537l-27.090881 0l0 -20.026367z" fill-rule="evenodd"/><defs><linearGradient id="p.6" gradientUnits="userSpaceOnUse" gradientTransform="matrix(20.233502237218755 0.0 0.0 20.233502237218755 0.0 0.0)" spreadMethod="pad" x1="-0.3719137161651087" y1="13.464963272653964" x2="13.935307539634575" y2="27.77223529499037"><stop offset="0.0" stop-color="#12dac8" stop-opacity="0.46666667"/><stop offset="0.05" stop-color="#3ee2d3" stop-opacity="0.5176471"/><stop offset="0.1" stop-color="#64e7da" stop-opacity="0.57254905"/><stop offset="0.15" stop-color="#84ece2" stop-opacity="0.62352943"/><stop offset="0.2" stop-color="#9cf0e7" stop-opacity="0.6784314"/><stop offset="0.25" stop-color="#b3f3ed" stop-opacity="0.73333335"/><stop offset="0.3" stop-color="#c7f6f2" stop-opacity="0.78431374"/><stop offset="0.35" stop-color="#d6f9f5" stop-opacity="0.8392157"/><stop offset="0.4" stop-color="#e6fcf9" stop-opacity="0.8901961"/><stop offset="0.45000002" stop-color="#f3fdfc" stop-opacity="0.94509804"/><stop offset="0.5" stop-color="#ffffff"/><stop offset="1.0" stop-color="#5be6e6"/></linearGradient></defs><path fill="url(#p.6)" d="m505.01077 215.6089c-2.5872803 0 -4.8385315 0.9669647 -6.7538147 2.9008942c-1.8984375 1.9169617 -2.8476868 4.1817017 -2.8476868 6.7942047c0 2.612503 0.94924927 4.8857117 2.8476868 6.819641c1.9152832 1.9169769 4.1665344 2.8754578 6.7538147 2.8754578c2.5704956 0 4.813385 -0.95848083 6.7286377 -2.8754578c1.9152527 -1.9339294 2.8728943 -4.207138 2.8728943 -6.819641c0 -2.612503 -0.9576416 -4.877243 -2.8728943 -6.7942047c-1.9152527 -1.9339294 -4.158142 -2.9008942 -6.7286377 -2.9008942zm-7.28302 32.06253l0 79.72377l14.389679 0l0 -79.72377z" fill-rule="evenodd"/></g></svg>